# xmcd
#
# Track frame offsets:
#	150
#	14380
#	27570
#	46208
#	62033
#	79782
#	96490
#	120868
#	136110
#	150613
#	179853
#	206833
#	218930
#	234810
#	260350
#
# Disc length: 4650 seconds
#
# Revision: 0
# Processed by: cddbd v1.5.1PL0 Copyright (c) Steve Scherf et al.
# Submitted via: EasyCDDAExtractor 4.5.0.1
#
DISCID=cd12280f
DTITLE=Rare Bird - Born Again and As your mind flies by
DYEAR=1900
DGENRE=blues
TTITLE0=Body and Soul
TTITLE1=Life for each other
TTITLE2=Diamonds
TTITLE3=Reaching you
TTITLE4=All that I need
TTITLE5=Redman
TTITLE6=Peace of Mind
TTITLE7=Harlem
TTITLE8=Lonely Street
TTITLE9=Last Tango in Beulah
TTITLE10=What you want to know
TTITLE11=Down the Floor
TTITLE12=Hammerhead
TTITLE13=I'm thinking
TTITLE14=Flight
EXTD=
EXTT0=
EXTT1=
EXTT2=
EXTT3=
EXTT4=
EXTT5=
EXTT6=
EXTT7=
EXTT8=
EXTT9=
EXTT10=
EXTT11=
EXTT12=
EXTT13=
EXTT14=
PLAYORDER=
